<mxfile host="app.diagrams.net" modified="2023-10-27T03:42:45.179Z" agent="Mozilla/5.0 (Windows NT 10.0; Win64; x64) AppleWebKit/537.36 (KHTML, like Gecko) Chrome/118.0.0.0 Safari/537.36" version="22.0.8" etag="p7uDHIzq5Lr6eT6c7eTJ" type="github">
  <diagram name="Page-1" id="cAtbmuVfd9IAyfiGvIof">
    <mxGraphModel>
      <root>
        <mxCell id="0" />
        <mxCell id="1" parent="0" />
      </root>
    </mxGraphModel>
  </diagram>
</mxfile>
